<svg id="Layer_1" data-name="Layer 1" xmlns="http://www.w3.org/2000/svg" width="163.29" height="45.7" viewBox="0 0 163.29 45.7">
  <defs>
    <style>
      .cls-1 {
        fill: #252424;
      }

      .cls-2 {
        fill: #262525;
      }

      .cls-3 {
        fill: #c1a07d;
      }
    </style>
  </defs>
  <title>Logo</title>
  <g>
    <path class="cls-1" d="M76,99.73A16.56,16.56,0,0,1,73.08,96c-.88-1.87-1.93-3.65-2.84-5.5a5.24,5.24,0,0,1-.4-1.46c-.1.08-.17.1-.19.15a31.23,31.23,0,0,0-2.08,6.37A1.44,1.44,0,0,1,66,96.67a1.41,1.41,0,0,1-1.56-1.09,3.12,3.12,0,0,1,0-1.55c.47-2,.93-4,1.46-6,.3-1.11.94-2.1,1.22-3.22.44-1.75,1.07-3.44,1.66-5.13a4.1,4.1,0,0,1,.91-1.64c.26-.25.27-.76.43-1.13.56-1.3,1.13-2.59,1.7-3.89.4-1.3,1.38-2.28,2-3.48.25-.51.5-1.15,1.28-1a2,2,0,0,1,1,1.92,2.48,2.48,0,0,1-.86,1.61c-.14.1-.18.33-.27.51a46.5,46.5,0,0,0-4.09,8.61,3.14,3.14,0,0,0-.43,1.47L71,81.42a4.17,4.17,0,0,1,.82-1.28l-.62,2c.34-.06.36-.32.46-.49.47-.81.89-1.65,1.4-2.43,1.6-2.4,3.53-4.54,5.21-6.88.79-.78,1.56-1.58,2.36-2.35,1.94-1.86,4-1.3,4.8,1.29.05.16.1.33.14.5-.2,1.08.07,2.2-.31,3.27a19,19,0,0,1-3.5,6.21,23.21,23.21,0,0,1-3.09,3.1c-.19.15-.41.43-.7.13l.16-.1a18.15,18.15,0,0,0,4.32-5.23l.11-.16a3.75,3.75,0,0,0,.69-1.46,5.25,5.25,0,0,0-.83,1.32l-.09.15c-.26.35-.51.71-.76,1.06-1.09,1.49-2.45,2.76-3.58,4.21l-.1.1a12,12,0,0,1-6.59,3.58c.27.48.5,1,.8,1.42a51.68,51.68,0,0,0,5.28,6.88,16.93,16.93,0,0,0,1.65,1.84l.86.42c1.24.84,2.19.77,3.53-.29,0-.35-.32-.45-.47-.67a2.54,2.54,0,0,1,0-3.15,1.68,1.68,0,0,0,.22-.47c.72-2.57,1.88-5,2.65-7.55.16-.56.17-.79-.42-.91a1.35,1.35,0,0,1-.54-.36c-.22-.21-.45-.45-.36-.79a.86.86,0,0,1,.69-.54,5.83,5.83,0,0,1,1.1-.09c.57,0,1-.23,1.13-.87a28.25,28.25,0,0,1,1-3.35q.81-2.55,1.68-5.08c.14-.41.18-.64-.39-.58a2.84,2.84,0,0,1-1.35-.21,1.25,1.25,0,0,1-.73-1.93,3.6,3.6,0,0,1,1.77-.32,10.21,10.21,0,0,0,1.24-.12,1.17,1.17,0,0,0,1-1.07c.2-1,.7-1.27,1.68-.93a2.6,2.6,0,0,1,1.4,1.12.39.39,0,0,0,.45.23c3.09-.3,6.17-.76,9.28-1a.5.5,0,0,0,.48-.25,1.37,1.37,0,0,1,2-.71,2.05,2.05,0,0,1,1.22,2.44c-.11.06-.12.12,0,.19a.08.08,0,0,0,0,.09c-.09.17-.2.33-.28.51-.38.86-1.24,1.37-1.63,2.24a49.9,49.9,0,0,0-3.93,12.21,9.62,9.62,0,0,0-.23,2.2c.06.77.5,1,1.17.61a3.24,3.24,0,0,0,.88-.77c1.18-1.38,2.39-2.73,3.51-4.15a13.54,13.54,0,0,0,2-3,26.48,26.48,0,0,1,2.21-3.31c1.42-2.26,2.87-4.52,4.31-6.77a1.58,1.58,0,0,1,1.34-.1c2,1.13,2.25,2.13,1.17,4.14-.24.44-.5.86-.72,1.31a6.27,6.27,0,0,0-.48,1.14A35.33,35.33,0,0,1,116,82c-1.72,4.27-3.46,8.54-5.06,12.86l-.53,1.18-.32.68c-.95,1.95-1.84,3.94-3,5.8a28.75,28.75,0,0,1-1.76,2.59,3.25,3.25,0,0,1-3.86,1.25,4.57,4.57,0,0,1-3-6.47,14.2,14.2,0,0,1,1.26-2.13l.89-1,1.58-1.57a22,22,0,0,1,1.89-1.58c.16-.1.36-.25.53-.1s0,.41-.08.59l-.68.94a6,6,0,0,0-1,1.57,2.69,2.69,0,0,0-.53.91,15.85,15.85,0,0,0-1.79,4.44,2.83,2.83,0,0,0-.06,1.23,1.11,1.11,0,0,0,1.72.92,3.23,3.23,0,0,0,1.38-1.26,39,39,0,0,0,3-5.71l.35-.75.66-1.47c1.55-3.32,5.55-14.46,5.46-15.35-.48.8-.92,1.55-1.37,2.28a36.18,36.18,0,0,1-5.34,7.25,5.73,5.73,0,0,0-1,1.25,2.18,2.18,0,0,1-2.73,1.15c-3-1.25-4-2.82-3.7-5.54.12-.95.62-1.79.73-2.74a35.43,35.43,0,0,1,2.3-7.73,19.55,19.55,0,0,1,2.14-4l.38-.87c-1.22-.07-2.15.66-3.23.86-2.17.31-4.26,1-6.43,1.35a1.23,1.23,0,0,0-1.07,1c-1.11,3.11-2.26,6.2-3.42,9.36,2.41-.24,4.79-.47,7.17-.73.18,0,.34-.13.44.08a.36.36,0,0,1-.17.45,1.12,1.12,0,0,1-.52.24c-.68.06-1.29.42-1.92.53-1.63.3-3.21.79-4.85,1a1,1,0,0,0-1,.8c-.77,2.7-1.7,5.35-2.67,8-.27.74-.52,1.48-.81,2.21a1.28,1.28,0,0,0,.08,1c0,.15.46,0,.7-.11a9.59,9.59,0,0,0,1.73-.77l5.25-2.92a3.47,3.47,0,0,1,.59-.27c.42-.12.59.05.47.47a2.9,2.9,0,0,1-.8,1.26c-.64.64-1.31,1.27-2,1.9l-1.67,1.33L88.4,98.69a4.24,4.24,0,0,1-3.77.18c-.32-.17-.42.15-.56.31a11.09,11.09,0,0,1-2,2c-1.53,1.08-3.34,1.37-4.92-.35A5.55,5.55,0,0,0,76,99.73ZM71,86.17a16.32,16.32,0,0,0,2.21-.71,16.21,16.21,0,0,0,3.28-2.53,22.52,22.52,0,0,0,5-7.18,7.05,7.05,0,0,0,.68-3.29c0-.71-.39-.88-1-.51A4.79,4.79,0,0,0,80,73c-3,3.48-6,6.94-8,11.17C71.72,84.83,71.35,85.5,71,86.17ZM104,72.8a17.24,17.24,0,0,0-1.78,3.85A15.49,15.49,0,0,0,104,72.8ZM89.42,79.21l-.15-.11L87.86,83A12.3,12.3,0,0,0,89.42,79.21ZM111.11,92a3.13,3.13,0,0,0-.79,1.88A8.41,8.41,0,0,0,111.11,92ZM83.48,77.15l0-.11s-.07,0-.07.06,0,.08,0,.12Zm20.64-4.51,0,0a.13.13,0,0,0-.07,0s0,0,0,0Zm.13-.27,0,0s0,0,0,0l0,.06Zm-21,5.11,0,0-.08,0s0,0,0,0Z" transform="translate(-10.29 -68.08)"/>
    <path class="cls-2" d="M133,70.31c.23.23.47.44.69.68s.56.77.23,1.23a1.82,1.82,0,0,1-1.53,1c-.37,0-.55-.41-.68-.72a6.09,6.09,0,0,1-.34-1.25c-.1-.54-.42-.79-.91-.7a4.69,4.69,0,0,0-2.87,1.65c-.42.51-.91,1-1.3,1.51a36.65,36.65,0,0,0-6,13.56,18.07,18.07,0,0,0-.54,3.41c0,.21-.06.47.18.6s.47,0,.65-.18a22.06,22.06,0,0,0,3.52-3.83c1.14-1.67,2.32-3.32,3.45-5s2.51-3.56,3.54-5.49c.3-.54.75-1,1-1.56a1.24,1.24,0,0,1,1.55-.51,2.45,2.45,0,0,1,1,.68.89.89,0,0,1,.2,1.21,7.81,7.81,0,0,1-.87,1.28,6.67,6.67,0,0,0-1,1.76,33.92,33.92,0,0,0-2.85,11.54c0,.48-.13.95-.2,1.43a4,4,0,0,0,.16,2.36c.06.31,0,.74.34.84s.65-.17.91-.41.33-.39.5-.58a8.29,8.29,0,0,0,1-1.33c.17-.2.35-.46.64-.34s.18.42.17.64-.08.52-.12.77c-.22.57-.4,1.15-.66,1.7-1.15,2.37-3.18,2-4.51.81a5.19,5.19,0,0,1-1.15-1.73c-.72-1.91-.18-3.88-.11-5.81a19.48,19.48,0,0,1,.78-4.76c0-.1.1-.24-.06-.33-.22.1-.28.33-.39.5-1.58,2.51-3.18,5-4.94,7.39a6.69,6.69,0,0,1-1.37,1.49,1.58,1.58,0,0,1-2.16.07,5.86,5.86,0,0,1-2.59-4.55,19.42,19.42,0,0,1,1.63-7.54,8.41,8.41,0,0,1,1.34-2.59c.39-.44.35-1.1.63-1.62a40.37,40.37,0,0,1,4.39-6.86c.4-.4.79-.8,1.19-1.19a4,4,0,0,1,4.67-.84A13.08,13.08,0,0,1,133,70.31Zm-9.64,6.84a.26.26,0,0,0,.07-.31c.19,0,.14-.15.13-.26l.1,0,0-.07,0,.11c-.13,0-.14.15-.13.26-.14,0-.14.14-.15.24s-.19.19-.08.25S123.29,77.22,123.34,77.15Zm-.82,1.41a27.77,27.77,0,0,0-2.46,7.71,2.89,2.89,0,0,0-.07,1.31l.27-1.31a64.84,64.84,0,0,1,2.39-7.55l.41-.91A1.18,1.18,0,0,0,122.52,78.56Zm5.3,11.07a8.24,8.24,0,0,0-.29,3.38A12,12,0,0,0,127.82,89.63Zm-8-1.3h0V88h0Zm3.92-12,0,0s0,0,0-.05,0,0,0,.05Zm.13-.26s0,0,0,0,0,0,0,0,0,0,0,0S123.86,76,123.87,76Zm.13-.26,0,0h0Zm4.08,8.43-.08,0,0,0,.08,0Zm-5-6.6,0,0-.08,0,0,0Z" transform="translate(-10.29 -68.08)"/>
    <path class="cls-1" d="M61.07,74.22a36.72,36.72,0,0,0-1.25,4c-.4,1.29-1,2.48-1.48,3.75-.26.73-.21.82.5.75a34.63,34.63,0,0,1,5.09-.22c.26,0,.52,0,.79,0s.38-.29.48,0-.11.45-.34.57a1.86,1.86,0,0,1-.31.1c-1.6.19-3.07.94-4.7,1-.7,0-1.35.44-2.07.52-.45,0-.54.53-.6.92a8.59,8.59,0,0,1-1.34,3.63c-.16.24-.08.51-.16.76-.67,2.16-1.35,4.31-2,6.47A6.32,6.32,0,0,1,53,97.78a.56.56,0,0,1-.69.2,3.83,3.83,0,0,1-2.09-1.25c-.75-.88-.29-1.79.06-2.57,1.16-2.56,2-5.24,3.1-7.81.09-.2.16-.41.25-.66a3.83,3.83,0,0,1-1.39-.53c-.24-.19-.48-.41-.39-.76a.75.75,0,0,1,.68-.62.5.5,0,0,1,.13,0c1.45,0,2.09-.76,2.4-2.09A9.91,9.91,0,0,1,56.14,79a18.5,18.5,0,0,0,1.58-4.38c.35-.78.35-.78-.45-.81a4.49,4.49,0,0,1-1.84-.38,1,1,0,0,1-.64-1.16.9.9,0,0,1,.91-.86c.82-.07,1.65-.15,2.47-.18a1,1,0,0,0,1.09-.87c.13-.6.22-1.31,1.05-1.38.6-.06,1.35.59,1.65,1.39.1.28.14.5.54.44,2.12-.34,4.27-.3,6.38-.63,1.22-.2,2.45-.37,3.72-.56-.15.53-.58.69-.93.92A17.62,17.62,0,0,1,64.81,73c-1,.17-1.94.28-2.92.38C61.37,73.47,61.09,73.69,61.07,74.22ZM56,87.13l-.15-.07L54.38,91A14.68,14.68,0,0,0,56,87.13Zm0-.22a.38.38,0,0,0,0-.13s0,0-.06-.07a.28.28,0,0,0,0,.12S56,86.88,56.07,86.91Zm-1.66,4.32,0-.1s0,.07,0,.1a.24.24,0,0,0,0,.1Z" transform="translate(-10.29 -68.08)"/>
  </g>
  <g>
    <path class="cls-3" d="M87.74,71.64a1.25,1.25,0,0,0,.73,1.93,2.84,2.84,0,0,0,1.35.21c.57-.06.53.17.39.58q-.87,2.53-1.68,5.08a28.25,28.25,0,0,0-1,3.35c-.13.64-.56.83-1.13.87a5.83,5.83,0,0,0-1.1.09.86.86,0,0,0-.69.54c-.09.34.14.58.36.79a1.35,1.35,0,0,0,.54.36c.59.12.58.35.42.91-.77,2.56-1.93,5-2.65,7.55a1.68,1.68,0,0,1-.22.47,2.54,2.54,0,0,0,0,3.15l-3.92.54a16.93,16.93,0,0,1-1.65-1.84,51.68,51.68,0,0,1-5.28-6.88c-.3-.45-.53-.94-.8-1.42a12,12,0,0,0,6.59-3.58l.08.11c.29.3.51,0,.7-.13a23.21,23.21,0,0,0,3.09-3.1A19,19,0,0,0,85.29,75c.38-1.07.11-2.19.31-3.27C86.32,71.81,87,71.52,87.74,71.64Z" transform="translate(-10.29 -68.08)"/>
    <path class="cls-3" d="M124.48,70.7a40.37,40.37,0,0,0-4.39,6.86c-.28.52-.24,1.18-.63,1.62a8.41,8.41,0,0,0-1.34,2.59,19.42,19.42,0,0,0-1.63,7.54,5.86,5.86,0,0,0,2.59,4.55,1.58,1.58,0,0,0,2.16-.07,6.69,6.69,0,0,0,1.37-1.49c1.76-2.39,3.36-4.88,4.94-7.39.11-.17.17-.4.39-.5.16.09.09.23.06.33a19.48,19.48,0,0,0-.78,4.76c-.07,1.93-.61,3.9.11,5.81l-5.7.5c-1.21.11-2.42.18-3.63.28l-5.5.51-2.4.16.32-.68c1.73-.09,3.46-.12,5.19-.28a31.81,31.81,0,0,0,3.49-.3L111,94.9c1.6-4.32,3.34-8.59,5.06-12.86a35.33,35.33,0,0,0,1.54-4.44,6.27,6.27,0,0,1,.48-1.14c.22-.45.48-.87.72-1.31,1.08-2,.8-3-1.17-4.14C119.88,71,122.18,70.67,124.48,70.7Z" transform="translate(-10.29 -68.08)"/>
    <path class="cls-3" d="M116.24,71.11c-1.44,2.25-2.89,4.51-4.31,6.77a26.48,26.48,0,0,0-2.21,3.31,13.54,13.54,0,0,1-2,3c-1.12,1.42-2.33,2.77-3.51,4.15a3.24,3.24,0,0,1-.88.77c-.67.38-1.11.16-1.17-.61a9.62,9.62,0,0,1,.23-2.2,49.9,49.9,0,0,1,3.93-12.21c.39-.87,1.25-1.38,1.63-2.24.08-.18.19-.34.28-.51,2.37,0,4.73-.08,7.09-.25C115.59,71.08,115.92,71.1,116.24,71.11Z" transform="translate(-10.29 -68.08)"/>
    <path class="cls-3" d="M70.9,81.27A46.5,46.5,0,0,1,75,72.66l3.31-.36c-1.68,2.34-3.61,4.48-5.21,6.88-.51.78-.93,1.62-1.4,2.43-.1.17-.12.43-.46.49l.62-2A4.17,4.17,0,0,0,71,81.42Z" transform="translate(-10.29 -68.08)"/>
    <path class="cls-3" d="M108.18,71.26c-.1-.07-.09-.13,0-.19Z" transform="translate(-10.29 -68.08)"/>
    <path class="cls-3" d="M131.93,94.79c-.17.19-.32.4-.5.58s-.57.51-.91.41-.28-.53-.34-.84A7.91,7.91,0,0,1,131.93,94.79Z" transform="translate(-10.29 -68.08)"/>
    <path class="cls-3" d="M103.89,95l.68-.94c.13-.18.27-.4.08-.59s-.37,0-.53.1a22,22,0,0,0-1.89,1.58c-1,.08-2,.15-3,.26-1.46.15-2.91.35-4.37.47a24.49,24.49,0,0,1-3,.28c.66-.63,1.33-1.26,2-1.9a2.9,2.9,0,0,0,.8-1.26c.12-.42,0-.59-.47-.47a3.47,3.47,0,0,0-.59.27L88.4,95.76a9.59,9.59,0,0,1-1.73.77c-.24.07-.65.26-.7.11a1.28,1.28,0,0,1-.08-1c.29-.73.54-1.47.81-2.21,1-2.63,1.9-5.28,2.67-8a1,1,0,0,1,1-.8c1.64-.17,3.22-.66,4.85-1,.63-.11,1.24-.47,1.92-.53a1.12,1.12,0,0,0,.52-.24.36.36,0,0,0,.17-.45c-.1-.21-.26-.1-.44-.08-2.38.26-4.76.49-7.17.73,1.16-3.16,2.31-6.25,3.42-9.36a1.23,1.23,0,0,1,1.07-1c2.17-.31,4.26-1,6.43-1.35H104a19.55,19.55,0,0,0-2.14,4,35.43,35.43,0,0,0-2.3,7.73c-.11,1-.61,1.79-.73,2.74-.32,2.72.66,4.29,3.7,5.54a2.18,2.18,0,0,0,2.73-1.15,5.73,5.73,0,0,1,1-1.25,36.18,36.18,0,0,0,5.34-7.25c.45-.73.89-1.48,1.37-2.28.09.89-3.91,12-5.46,15.35C106.31,94.83,105.11,95,103.89,95Z" transform="translate(-10.29 -68.08)"/>
    <path class="cls-3" d="M71,86.17c.35-.67.72-1.34,1-2C74,79.91,77,76.45,80,73a4.79,4.79,0,0,1,1.18-1c.61-.37,1-.2,1,.51a7.05,7.05,0,0,1-.68,3.29,22.52,22.52,0,0,1-5,7.18,16.21,16.21,0,0,1-3.28,2.53A16.32,16.32,0,0,1,71,86.17Z" transform="translate(-10.29 -68.08)"/>
    <path class="cls-3" d="M106.52,97.14a39,39,0,0,1-3,5.71,3.23,3.23,0,0,1-1.38,1.26,1.11,1.11,0,0,1-1.72-.92,2.83,2.83,0,0,1,.06-1.23,15.85,15.85,0,0,1,1.79-4.44Z" transform="translate(-10.29 -68.08)"/>
    <path class="cls-3" d="M91.94,96.2a24.49,24.49,0,0,0,3-.28c1.46-.12,2.91-.32,4.37-.47,1-.11,2-.18,3-.26l-1.58,1.57c-2,.16-4,.34-6,.48a42.17,42.17,0,0,1-4.35.29Z" transform="translate(-10.29 -68.08)"/>
    <path class="cls-3" d="M103.89,95c1.22,0,2.42-.21,3.64-.12l-.66,1.47a36,36,0,0,0-4,.22A6,6,0,0,1,103.89,95Z" transform="translate(-10.29 -68.08)"/>
    <path class="cls-3" d="M111,94.9l8.15.6a31.81,31.81,0,0,1-3.49.3c-1.73.16-3.46.19-5.19.28Z" transform="translate(-10.29 -68.08)"/>
    <g>
      <path class="cls-3" d="M61.07,74.22c1.67-.19,3.34-.42,5-.57a53.49,53.49,0,0,1,5.8-.59c-.57,1.3-1.14,2.59-1.7,3.89-.16.37-.17.88-.43,1.13a4.1,4.1,0,0,0-.91,1.64c-.59,1.69-1.22,3.38-1.66,5.13C66.91,86,66.27,87,66,88.07c-.53,2-1,4-1.46,6a3.12,3.12,0,0,0,0,1.55A1.41,1.41,0,0,0,66,96.67a1.44,1.44,0,0,0,1.53-1.16,31.23,31.23,0,0,1,2.08-6.37s.09-.07.19-.15a5.24,5.24,0,0,0,.4,1.46c.91,1.85,2,3.63,2.84,5.5A16.56,16.56,0,0,0,76,99.73c-1.48.26-3,.27-4.47.42-2,.19-4,.34-6,.5-1.36.11-2.73.18-4.09.29-2.15.16-4.28.36-6.43.5-1.28.07-2.55.17-3.83.27-2.4.19-4.81.38-7.21.52-1.41.08-2.82.16-4.23.26-2.56.17-5.12.27-7.68.42a22.37,22.37,0,0,1-4.31-.6c-1.78-.26-3.57-.45-5.36-.59-2.53-.2-5.06-.09-7.58-.14-.52,0-1.17.41-1.49,0s0-1,0-1.44-.21-1.23-.32-1.85a8.79,8.79,0,0,1-.2-1.35A2.6,2.6,0,0,1,15,94a16.76,16.76,0,0,1,4.41-.42c1,0,1.06,0,.86-1.07l0-.13c-.08-.35.16-.85-.14-1.05A3.44,3.44,0,0,0,18.9,91a19.93,19.93,0,0,1-8.11-3.57,1.12,1.12,0,0,1-.5-1c0-1.88,0-3.75,0-5.63a1,1,0,0,1,.55-.93,18.45,18.45,0,0,1,6.7-2.25,89.11,89.11,0,0,1,9.22-1.22c1.86-.14,3.72-.26,5.59-.38,2.82-.17,5.64-.29,8.46-.4l5.54-.26c2.89-.13,5.77-.33,8.65-.52.91-.05,1.81-.16,2.72-.24A18.5,18.5,0,0,1,56.14,79,9.91,9.91,0,0,0,55,81.66c-.31,1.33-.95,2.14-2.4,2.09a.5.5,0,0,0-.13,0,.75.75,0,0,0-.68.62c-.09.35.15.57.39.76a3.83,3.83,0,0,0,1.39.53c-.09.25-.16.46-.25.66-1.1,2.57-1.94,5.25-3.1,7.81-.35.78-.81,1.69-.06,2.57A3.83,3.83,0,0,0,52.29,98a.56.56,0,0,0,.69-.2,6.32,6.32,0,0,0,.69-1.25c.66-2.16,1.34-4.31,2-6.47.08-.25,0-.52.16-.76a8.59,8.59,0,0,0,1.34-3.63c.06-.39.15-.87.6-.92.72-.08,1.37-.48,2.07-.52,1.63-.1,3.1-.85,4.7-1a1.86,1.86,0,0,0,.31-.1c.23-.12.41-.31.34-.57s-.32,0-.48,0-.53,0-.79,0a34.63,34.63,0,0,0-5.09.22c-.71.07-.76,0-.5-.75.44-1.27,1.08-2.46,1.48-3.75A36.72,36.72,0,0,1,61.07,74.22Z" transform="translate(-10.29 -68.08)"/>
      <path class="cls-3" d="M133,70.31c2.92,0,5.83-.21,8.75-.13.68,0,1.35.1,2,.11a45.5,45.5,0,0,0,8.15-.82c2.76-.44,5.51-1,8.29-1.28a9.18,9.18,0,0,1,4.56.41,2.36,2.36,0,0,1,1.61,2.48c0,.35-.12.5-.49.54-2.09.25-4.17.52-6.26.78-1.66.2-3.31.42-5,.6-1.42.17-2.85.3-4.27.44-2,.21-4,.43-6,.63-.95.09-1.9.13-2.85.28.62,0,1.23,0,1.85,0,1.25-.06,2.51-.16,3.77-.24,2.42-.17,4.85-.37,7.27-.49,1.39-.07,2.78-.17,4.17-.29,2-.18,3.93-.34,5.9-.51h.19c1.44-.09,1.43-.1,1.21,1.32a3.63,3.63,0,0,0,.23,1.66c.12.38.3.51.77.45.94-.14,1.88-.32,2.81-.53a3.21,3.21,0,0,1,2.14.21,7.68,7.68,0,0,0,.79.32,1.34,1.34,0,0,1,1,1.52c-.06,2.24,0,4.49,0,6.74a1.42,1.42,0,0,1-.37.92,5.36,5.36,0,0,1-5.13,2.22,72.65,72.65,0,0,0-8.46.36c-1.84.09-3.69.23-5.52.39-2.23.19-4.45.49-6.68.61-2,.11-3.93.35-5.89.58a62.88,62.88,0,0,0-6.85.73c-.25.06-.51,0-.77.1a14.6,14.6,0,0,0,3.8-.14c1.36-.22,2.72-.32,4.08-.42,1.8-.13,3.61-.08,5.41-.17,4.05-.21,8.1-.19,12.15-.28,2.87-.07,5.74-.08,8.61-.09.2,0,.5-.13.57.14s-.23.29-.39.4a18.28,18.28,0,0,1-7.5,3.2c-1.11.18-2.24.22-3.37.29-2.43.15-4.86.27-7.29.42s-5.07.34-7.6.52c-1.69.12-3.38.26-5.07.37-1.22.09-2.43-.22-3.65-.11,0-.25.1-.51.12-.77s.11-.52-.17-.64-.47.14-.64.34a8.29,8.29,0,0,1-1,1.33,7.91,7.91,0,0,0-1.75.15,4,4,0,0,1-.16-2.36c.07-.48.16-1,.2-1.43a33.92,33.92,0,0,1,2.85-11.54,6.67,6.67,0,0,1,1-1.76,7.81,7.81,0,0,0,.87-1.28.89.89,0,0,0-.2-1.21,2.45,2.45,0,0,0-1-.68,1.24,1.24,0,0,0-1.55.51c-.29.56-.74,1-1,1.56-1,1.93-2.33,3.68-3.54,5.49s-2.31,3.33-3.45,5a22.06,22.06,0,0,1-3.52,3.83c-.18.16-.4.31-.65.18s-.18-.39-.18-.6a18.07,18.07,0,0,1,.54-3.41,36.65,36.65,0,0,1,6-13.56c.39-.54.88-1,1.3-1.51a4.69,4.69,0,0,1,2.87-1.65c.49-.09.81.16.91.7a6.09,6.09,0,0,0,.34,1.25c.13.31.31.71.68.72a1.82,1.82,0,0,0,1.53-1c.33-.46.1-.87-.23-1.23S133.21,70.54,133,70.31Z" transform="translate(-10.29 -68.08)"/>
      <path class="cls-3" d="M100.65,96.76l-.89,1c-1.31,0-2.62.21-3.93.34-1,.11-2.06.2-3.1.25-1.45.06-2.87.37-4.33.3l1.87-1.16a42.17,42.17,0,0,0,4.35-.29C96.63,97.1,98.64,96.92,100.65,96.76Z" transform="translate(-10.29 -68.08)"/>
      <path class="cls-3" d="M102.85,96.61a36,36,0,0,1,4-.22l-.35.75-4.2.38A2.69,2.69,0,0,1,102.85,96.61Z" transform="translate(-10.29 -68.08)"/>
    </g>
    <path class="cls-3" d="M79.06,98.06,83,97.52c.15.22.48.32.47.67l-3.53.29Z" transform="translate(-10.29 -68.08)"/>
    <path class="cls-3" d="M82.48,79.12a18.15,18.15,0,0,1-4.32,5.23L78,84.24c1.13-1.45,2.49-2.72,3.58-4.21.25-.35.5-.71.76-1.06Z" transform="translate(-10.29 -68.08)"/>
    <path class="cls-3" d="M79.92,98.48l3.53-.29C82.11,99.25,81.16,99.32,79.92,98.48Z" transform="translate(-10.29 -68.08)"/>
    <path class="cls-3" d="M104,71.48h-2.85c1.08-.2,2-.93,3.23-.86Z" transform="translate(-10.29 -68.08)"/>
    <path class="cls-3" d="M70.9,81.27l.13.15-.56,1.32A3.14,3.14,0,0,1,70.9,81.27Z" transform="translate(-10.29 -68.08)"/>
    <path class="cls-3" d="M82.45,78.82a5.25,5.25,0,0,1,.83-1.32A3.75,3.75,0,0,1,82.59,79Z" transform="translate(-10.29 -68.08)"/>
    <path class="cls-3" d="M83.48,77.15l-.08.07s0-.08,0-.12,0,0,.07-.06Z" transform="translate(-10.29 -68.08)"/>
    <path class="cls-3" d="M82.45,78.82l.14.14-.11.16L82.36,79Z" transform="translate(-10.29 -68.08)"/>
    <path class="cls-3" d="M77.92,84.34l.1-.1.14.11-.16.1Z" transform="translate(-10.29 -68.08)"/>
    <path class="cls-3" d="M83.3,77.48l-.07,0s0,0,0,0l.08,0Z" transform="translate(-10.29 -68.08)"/>
    <path class="cls-3" d="M120.06,86.27h.2L120,87.58A2.89,2.89,0,0,1,120.06,86.27Z" transform="translate(-10.29 -68.08)"/>
    <path class="cls-3" d="M122.65,78.72l-.13-.16a1.18,1.18,0,0,1,.54-.75Z" transform="translate(-10.29 -68.08)"/>
    <path class="cls-3" d="M119.82,88.33V88h0v.31Z" transform="translate(-10.29 -68.08)"/>
    <path class="cls-3" d="M123.42,76.85c0-.11,0-.22.13-.26h0c0,.11.06.25-.13.26Z" transform="translate(-10.29 -68.08)"/>
    <path class="cls-3" d="M123.27,77.09c0-.1,0-.21.15-.24h0a.26.26,0,0,1-.07.31Z" transform="translate(-10.29 -68.08)"/>
    <path class="cls-3" d="M123.34,77.15c0,.07,0,.27-.15.19s0-.18.08-.25Z" transform="translate(-10.29 -68.08)"/>
    <path class="cls-3" d="M123.55,76.59l0-.11,0,.07-.1,0Z" transform="translate(-10.29 -68.08)"/>
    <path class="cls-3" d="M123.74,76.3l0,0s0,0,0-.05,0,0,0,.05Z" transform="translate(-10.29 -68.08)"/>
    <path class="cls-3" d="M123.87,76s0,0,0-.05,0,0,0,0,0,0,0,0S123.88,76,123.87,76Z" transform="translate(-10.29 -68.08)"/>
    <polygon class="cls-3" points="113.71 7.69 113.69 7.64 113.73 7.64 113.71 7.69"/>
    <path class="cls-3" d="M128.08,84.21l0,0-.08,0,0,0Z" transform="translate(-10.29 -68.08)"/>
    <path class="cls-3" d="M123.11,77.61l-.08,0,0,0,.08,0Z" transform="translate(-10.29 -68.08)"/>
    <g>
      <path class="cls-3" d="M104,72.8a15.49,15.49,0,0,1-1.78,3.85A17.24,17.24,0,0,1,104,72.8Z" transform="translate(-10.29 -68.08)"/>
      <path class="cls-3" d="M89.42,79.21A12.3,12.3,0,0,1,87.86,83l1.41-3.9Z" transform="translate(-10.29 -68.08)"/>
      <path class="cls-3" d="M111.11,92a8.41,8.41,0,0,1-.79,1.88A3.13,3.13,0,0,1,111.11,92Z" transform="translate(-10.29 -68.08)"/>
      <path class="cls-3" d="M104.12,72.64l-.07,0s0,0,0,0a.13.13,0,0,1,.07,0Z" transform="translate(-10.29 -68.08)"/>
      <path class="cls-3" d="M104.25,72.37l0,0,0-.06s0,0,0,0Z" transform="translate(-10.29 -68.08)"/>
      <path class="cls-3" d="M120.06,86.27a27.77,27.77,0,0,1,2.46-7.71l.13.16a64.84,64.84,0,0,0-2.39,7.55Z" transform="translate(-10.29 -68.08)"/>
      <path class="cls-3" d="M127.82,89.63a12,12,0,0,1-.29,3.38A8.24,8.24,0,0,1,127.82,89.63Z" transform="translate(-10.29 -68.08)"/>
      <path class="cls-3" d="M56,87.13A14.68,14.68,0,0,1,54.38,91l1.5-3.89Z" transform="translate(-10.29 -68.08)"/>
    </g>
    <path class="cls-3" d="M56.07,86.91s-.06-.06-.06-.08a.28.28,0,0,1,0-.12s.06.05.06.07A.38.38,0,0,1,56.07,86.91Z" transform="translate(-10.29 -68.08)"/>
    <path class="cls-3" d="M54.41,91.23l0,.1a.24.24,0,0,1,0-.1s0-.06,0-.1A.93.93,0,0,1,54.41,91.23Z" transform="translate(-10.29 -68.08)"/>
  </g>
  <g>
    <path d="M72.26,109.2a5,5,0,0,1,.95-.08,1.62,1.62,0,0,1,1.11.29.86.86,0,0,1,.34.71A1,1,0,0,1,74,111v0a1,1,0,0,1,.83,1,1.05,1.05,0,0,1-.35.8,1.93,1.93,0,0,1-1.39.38,7.25,7.25,0,0,1-.81,0Zm.52,1.66h.48c.54,0,.87-.29.87-.69s-.36-.65-.89-.65a3.25,3.25,0,0,0-.46,0Zm0,1.93a2.51,2.51,0,0,0,.44,0c.54,0,1-.2,1-.79s-.48-.78-1.05-.78h-.43Z" transform="translate(-10.29 -68.08)"/>
    <path d="M81.06,111.13a1.89,1.89,0,0,1-1.87,2.12,1.85,1.85,0,0,1-1.82-2,1.91,1.91,0,0,1,1.87-2.12A1.85,1.85,0,0,1,81.06,111.13Zm-3.14.06c0,.87.47,1.64,1.29,1.64s1.3-.76,1.3-1.68-.42-1.65-1.29-1.65S77.92,110.31,77.92,111.19Z" transform="translate(-10.29 -68.08)"/>
    <path d="M84.35,109.15v2.39c0,.9.4,1.29,1,1.29s1-.4,1-1.29v-2.39h.53v2.35c0,1.25-.66,1.75-1.53,1.75s-1.45-.47-1.45-1.72v-2.38Z" transform="translate(-10.29 -68.08)"/>
    <path d="M90.58,109.59H89.35v-.44h3v.44H91.1v3.6h-.52Z" transform="translate(-10.29 -68.08)"/>
    <path d="M95.41,109.15v4h-.53v-4Z" transform="translate(-10.29 -68.08)"/>
    <path d="M101.75,113.78c-.55-.14-1.08-.31-1.55-.47l-.25-.06a1.84,1.84,0,0,1-1.77-2,1.91,1.91,0,0,1,1.87-2.13,1.85,1.85,0,0,1,1.82,2,1.88,1.88,0,0,1-1.15,1.94v0c.4.1.84.2,1.18.26Zm-.43-2.63c0-.81-.42-1.65-1.28-1.65s-1.31.82-1.31,1.7.47,1.63,1.28,1.63S101.32,112.07,101.32,111.15Z" transform="translate(-10.29 -68.08)"/>
    <path d="M105.16,109.15v2.39c0,.9.4,1.29,1,1.29s1-.4,1-1.29v-2.39h.53v2.35c0,1.25-.66,1.75-1.54,1.75s-1.44-.47-1.44-1.72v-2.38Z" transform="translate(-10.29 -68.08)"/>
    <path d="M112.71,111.29h-1.57v1.46h1.75v.44h-2.27v-4h2.18v.43h-1.66v1.28h1.57Z" transform="translate(-10.29 -68.08)"/>
  </g>
</svg>
